<svg width="2" height="14" viewBox="0 0 2 14" fill="none" xmlns="http://www.w3.org/2000/svg">
<path d="M2 1.66675C2 2.21903 1.55228 2.66675 1 2.66675C0.447715 2.66675 0 2.21903 0 1.66675C0 1.11446 0.447715 0.666748 1 0.666748C1.55228 0.666748 2 1.11446 2 1.66675Z" fill="black"/>
<path d="M2 7.00008C2 7.55237 1.55228 8.00008 1 8.00008C0.447715 8.00008 0 7.55237 0 7.00008C0 6.4478 0.447715 6.00008 1 6.00008C1.55228 6.00008 2 6.4478 2 7.00008Z" fill="black"/>
<path d="M1 13.3334C1.55228 13.3334 2 12.8857 2 12.3334C2 11.7811 1.55228 11.3334 1 11.3334C0.447715 11.3334 0 11.7811 0 12.3334C0 12.8857 0.447715 13.3334 1 13.3334Z" fill="black"/>
</svg>
