<svg width="20" height="20" viewBox="0 0 20 20" fill="none" xmlns="http://www.w3.org/2000/svg">
<path d="M16.1991 12.8658C16.9696 12.101 17.5645 11.3409 17.9533 10.7958C18.2066 10.4405 18.3333 10.2629 18.3333 9.99996C18.3333 9.73704 18.2066 9.55938 17.9533 9.20413C16.8149 7.60783 13.9076 4.16663 9.99996 4.16663C9.24346 4.16663 8.52446 4.29559 7.84852 4.51518M5.62281 5.62281C3.94261 6.75596 2.70175 8.28551 2.04666 9.20413C1.7933 9.55938 1.66663 9.73704 1.66663 9.99996C1.66663 10.2629 1.7933 10.4405 2.04666 10.7958C3.18504 12.3921 6.09228 15.8333 9.99996 15.8333C11.659 15.8333 13.1375 15.213 14.3771 14.3771" stroke="#A8A8A8" stroke-width="1.25" stroke-linecap="round" stroke-linejoin="round"/>
<path d="M8.21488 8.33337C7.77319 8.77504 7.5 9.38529 7.5 10.0593C7.5 11.4073 8.59275 12.5 9.94075 12.5C10.6147 12.5 11.225 12.2269 11.6667 11.7851" stroke="#A8A8A8" stroke-width="1.25" stroke-linecap="round"/>
<path d="M2.5 2.5L17.5 17.5" stroke="#A8A8A8" stroke-width="1.25" stroke-linecap="round" stroke-linejoin="round"/>
</svg>
