<svg width="20" height="20" viewBox="0 0 20 20" fill="none" xmlns="http://www.w3.org/2000/svg">
<path d="M5.83335 6.24997L8.28502 7.69997C9.71418 8.54497 10.285 8.54497 11.715 7.69997L14.1667 6.24997M18.33 8.3333C18.3275 8.02747 18.3242 8.14164 18.32 7.93914C18.2658 5.3833 18.2383 4.1058 17.2958 3.15914C16.3533 2.21247 15.0417 2.17997 12.4175 2.11414C10.8008 2.07247 9.19918 2.07247 7.58251 2.11414C4.95835 2.17997 3.64668 2.21247 2.70418 3.15914C1.76168 4.1058 1.73335 5.3833 1.67918 7.9383C1.66163 8.75849 1.66163 9.57895 1.67918 10.3991C1.73418 12.9541 1.76168 14.2325 2.70418 15.1783C3.64668 16.1241 4.95835 16.1583 7.58251 16.225C8.08918 16.2375 8.74668 16.2458 9.16668 16.2508M12.9883 15.54C12.4642 15.8475 11.0908 16.4741 11.9275 17.2591C12.3358 17.6425 12.7917 17.9166 13.3633 17.9166H16.63C17.2017 17.9166 17.6575 17.6425 18.0658 17.2591C18.9025 16.4741 17.5292 15.8475 17.005 15.54C16.395 15.1858 15.7021 14.9992 14.9967 14.9992C14.2913 14.9992 13.5984 15.1858 12.9883 15.54ZM16.6633 11.6666C16.6633 12.1087 16.4878 12.5326 16.1752 12.8451C15.8626 13.1577 15.4387 13.3333 14.9967 13.3333C14.5547 13.3333 14.1307 13.1577 13.8182 12.8451C13.5056 12.5326 13.33 12.1087 13.33 11.6666C13.33 11.2246 13.5056 10.8007 13.8182 10.4881C14.1307 10.1756 14.5547 9.99997 14.9967 9.99997C15.4387 9.99997 15.8626 10.1756 16.1752 10.4881C16.4878 10.8007 16.6633 11.2246 16.6633 11.6666Z" stroke="#A8A8A8" stroke-width="1.5" stroke-linecap="round" stroke-linejoin="round"/>
</svg>
