<svg width="200" height="60" viewBox="0 0 200 60" fill="none" xmlns="http://www.w3.org/2000/svg">
<path d="M26.9097 27.3216C26.9097 27.2476 26.9071 27.1885 26.9071 27.1268C26.9071 24.689 26.9071 22.2511 26.9071 19.8133C26.9071 19.1971 26.817 18.5956 26.629 18.0089C26.4102 17.3286 26.0755 16.7074 25.6249 16.143C25.5966 16.106 25.5708 16.0666 25.5425 16.0296C25.5399 16.0271 25.5425 16.0222 25.5451 16.0173C25.5528 16.0123 25.5605 16.0025 25.5683 16.0025C31.768 16 37.9704 16 44.1727 16C44.1907 16 44.2088 16.0074 44.2268 16.0099C44.2577 16.0567 44.2448 16.1035 44.2448 16.1504C44.2448 16.5374 44.2448 16.9244 44.2448 17.3114C44.2448 17.7624 44.2448 18.216 44.2448 18.6671C44.2448 18.7115 44.2397 18.7583 44.2397 18.8076C44.1753 18.8002 44.1444 18.7632 44.1083 18.7361C43.8251 18.5291 43.5265 18.3442 43.2124 18.1864C42.561 17.8586 41.8684 17.6466 41.1372 17.5529C40.8566 17.516 40.5759 17.4987 40.2927 17.4987C38.5883 17.4987 36.8839 17.4987 35.182 17.4987C35.1254 17.4987 35.0662 17.4913 35.0018 17.511C34.9889 17.723 34.9992 17.9325 34.9966 18.1396C34.9941 18.3442 34.9966 18.5488 34.9966 18.7558C34.9966 18.9654 34.9966 19.1749 34.9966 19.3844C34.9966 19.5939 34.9966 19.8034 34.9966 20.013C34.9966 20.2176 34.9966 20.4221 34.9966 20.6292C34.9966 20.8387 34.9966 21.0482 34.9966 21.2578C34.9966 21.4673 34.9966 21.6768 34.9966 21.8863C34.9966 22.0909 34.9966 22.2955 34.9966 22.5026C34.9966 22.7121 34.9966 22.9216 34.9966 23.1311C34.9966 23.3407 34.9966 23.5502 34.9966 23.7597C34.9966 23.9643 34.9966 24.1689 34.9966 24.3759C34.9966 24.5855 34.9966 24.795 34.9966 24.9946C34.9632 25.0267 34.9349 25.0144 34.9065 25.0094C34.4431 24.9059 33.9848 24.7728 33.5368 24.62C33.4647 24.5953 33.3926 24.5682 33.3102 24.5411C33.3102 24.4844 33.3077 24.4302 33.3077 24.3735C33.3077 22.8772 33.3077 21.381 33.3077 19.8848C33.3077 19.1428 33.3077 18.4033 33.3077 17.6614C33.3077 17.6121 33.3128 17.5603 33.2974 17.511C33.2768 17.5061 33.2639 17.4987 33.251 17.4987C31.7165 17.4987 30.1846 17.4987 28.6501 17.4987C28.6373 17.4987 28.6244 17.5061 28.6038 17.511C28.6012 17.5332 28.5961 17.5554 28.5961 17.5776C28.5806 17.9917 28.5909 25.3841 28.6064 25.5123C28.6373 25.5172 28.6681 25.5246 28.7016 25.5246C28.8535 25.5271 29.0029 25.5222 29.1548 25.5271C29.7109 25.5394 30.2619 25.5862 30.8128 25.6577C31.7062 25.776 32.5816 25.9782 33.4364 26.2518C33.7454 26.3504 34.0543 26.4514 34.3659 26.5402C34.9555 26.7053 35.5553 26.8212 36.163 26.905C36.9611 27.0135 37.7618 27.043 38.5677 27.0036C39.7366 26.9469 40.8566 26.6831 41.9199 26.2123C42.0255 26.1655 42.131 26.1162 42.2366 26.0694C42.2623 26.057 42.2881 26.0472 42.3087 26.0398C42.3215 26.0472 42.3267 26.0497 42.3293 26.0521C42.3318 26.0546 42.3344 26.0595 42.3344 26.0644C42.337 26.5993 42.337 27.1367 42.3396 27.6716C42.3396 27.6938 42.3344 27.7184 42.3318 27.748C42.3009 27.7628 42.2726 27.7776 42.2417 27.7899C41.4462 28.1153 40.6248 28.3544 39.7701 28.485C39.2937 28.559 38.8149 28.5984 38.3308 28.6132C37.7747 28.628 37.2211 28.6181 36.6676 28.5713C35.5631 28.4801 34.4817 28.278 33.4287 27.9403C33.0605 27.822 32.6923 27.7012 32.319 27.5952C31.7062 27.4202 31.0806 27.3068 30.4472 27.2279C29.9143 27.1614 29.3813 27.1268 28.8458 27.1244C28.5291 27.1244 28.215 27.1515 27.9009 27.1909C27.6125 27.2279 27.3242 27.2723 27.0332 27.3117C26.9972 27.3166 26.9637 27.3166 26.9097 27.3216Z" fill="white"/>
<path d="M25.5297 39.9817C25.5478 39.9274 25.5838 39.8954 25.6121 39.8609C26.006 39.3703 26.315 38.833 26.5364 38.2512C26.7192 37.7656 26.8377 37.2677 26.8788 36.755C26.8943 36.5554 26.9046 36.3557 26.9046 36.156C26.9072 34.9433 26.9046 33.733 26.9072 32.5202C26.9072 32.466 26.9097 32.4093 26.9097 32.3477C26.9561 32.3403 26.9921 32.3304 27.0308 32.3279C27.677 32.2712 28.3696 32.2491 28.5807 32.2786C28.5858 32.3033 28.591 32.3304 28.5936 32.3575C28.5961 32.3994 28.5936 32.4413 28.5936 32.4832C28.5936 34.4232 28.5936 36.3606 28.5936 38.3005C28.5936 38.3597 28.5936 38.4213 28.5936 38.4854C28.6296 38.4928 28.6579 38.5002 28.6837 38.5027C28.7172 38.5051 28.7506 38.5027 28.7867 38.5027C30.2285 38.5027 31.6677 38.5027 33.1095 38.5027C33.1662 38.5027 33.2254 38.5002 33.2897 38.5002C33.2949 38.4682 33.3026 38.4435 33.3052 38.4164C33.3078 38.3794 33.3052 38.3424 33.3052 38.3055C33.3052 36.124 33.3052 33.9425 33.3052 31.761C33.3052 31.7018 33.3052 31.6402 33.3026 31.5835C33.2769 31.5712 33.2614 31.5613 33.2434 31.5539C32.852 31.4307 32.4607 31.3 32.0642 31.1842C31.3793 30.9821 30.6816 30.8391 29.9684 30.7553C29.3479 30.6813 28.7275 30.6419 28.1044 30.6592C27.5199 30.674 26.9381 30.7208 26.3613 30.8095C25.7743 30.8983 25.1976 31.0264 24.626 31.1891C24.5797 31.2015 24.5359 31.2236 24.4818 31.2113C24.4793 31.1941 24.4741 31.1768 24.4741 31.1571C24.4741 30.6444 24.4741 30.1317 24.4741 29.6189C24.4741 29.6066 24.4818 29.5918 24.4896 29.5696C24.6389 29.5327 24.7934 29.4908 24.9479 29.4538C25.4293 29.3404 25.9185 29.2541 26.4103 29.19C26.9175 29.126 27.4247 29.0742 27.937 29.0619C28.4571 29.0471 28.9772 29.0717 29.4973 29.1087C30.6739 29.1925 31.817 29.4218 32.9344 29.7767C33.2769 29.8852 33.6167 29.9986 33.9617 30.0947C34.2758 30.181 34.5951 30.2426 34.9118 30.3165C34.9298 30.3215 34.9504 30.3239 34.9761 30.3313C34.9813 30.3609 34.989 30.3905 34.989 30.4225C34.9916 30.4644 34.989 30.5063 34.989 30.5482C34.989 33.134 34.989 35.7222 34.989 38.3079C34.989 38.3671 34.989 38.4287 34.9916 38.4928C35.0276 38.4977 35.056 38.5051 35.0817 38.5076C35.1255 38.5101 35.1692 38.5076 35.213 38.5076C36.8968 38.5076 38.5807 38.5101 40.2671 38.5076C41.6857 38.5051 42.9653 38.091 44.0981 37.2702C44.1368 37.2431 44.1754 37.216 44.2114 37.1913C44.2552 37.2209 44.2423 37.2554 44.2423 37.285C44.2423 37.6054 44.2423 37.9283 44.2423 38.2488C44.2423 38.7763 44.2423 39.3013 44.2423 39.8288C44.2423 39.8781 44.2397 39.9299 44.2372 39.9866C44.2011 39.9915 44.1754 39.9989 44.1471 39.9989C44.1033 40.0014 44.0595 39.9989 44.0157 39.9989C37.9215 39.9989 31.8273 39.9989 25.7306 39.9989C25.6688 39.994 25.6018 40.0038 25.5297 39.9817Z" fill="white"/>
<path d="M49.9263 39.8182V18.8727H52.9174V39.8182H49.9263Z" fill="white"/>
<path d="M67.3642 18.8727H70.3554V39.8182H67.3642V37.7655C66.8944 38.4916 66.2808 39.0781 65.5235 39.5249C64.7661 39.9625 63.8793 40.1812 62.863 40.1812C61.818 40.1812 60.8401 39.9904 59.9294 39.6087C59.0186 39.2271 58.2133 38.7011 57.5134 38.0308C56.8231 37.3513 56.2815 36.5693 55.8884 35.6849C55.4953 34.8006 55.2988 33.8511 55.2988 32.8364C55.2988 31.8217 55.4953 30.8721 55.8884 29.9878C56.2815 29.0941 56.8231 28.3121 57.5134 27.6419C58.2133 26.9623 59.0186 26.4317 59.9294 26.05C60.8401 25.6684 61.818 25.4775 62.863 25.4775C63.8793 25.4775 64.7661 25.7009 65.5235 26.1478C66.2808 26.5853 66.8944 27.1625 67.3642 27.8793V18.8727ZM62.8918 37.3745C63.7355 37.3745 64.4737 37.1744 65.1064 36.7741C65.7392 36.3645 66.2281 35.8153 66.5732 35.1264C66.928 34.4375 67.1053 33.6742 67.1053 32.8364C67.1053 31.9892 66.928 31.2212 66.5732 30.5324C66.2185 29.8435 65.7248 29.2989 65.092 28.8986C64.4689 28.489 63.7355 28.2842 62.8918 28.2842C62.0577 28.2842 61.2955 28.489 60.6053 28.8986C59.9246 29.3082 59.3781 29.8575 58.9659 30.5463C58.5632 31.2352 58.3619 31.9985 58.3619 32.8364C58.3619 33.6835 58.568 34.4515 58.9802 35.1404C59.4021 35.8199 59.9533 36.3645 60.634 36.7741C61.3243 37.1744 62.0769 37.3745 62.8918 37.3745Z" fill="white"/>
<path d="M84.792 25.8545H87.7832V39.8182H84.7776L84.6626 37.7935C84.2407 38.5103 83.6703 39.0874 82.9513 39.5249C82.2322 39.9625 81.3838 40.1812 80.4059 40.1812C79.3513 40.1812 78.359 39.9904 77.4291 39.6087C76.4991 39.2177 75.6794 38.6778 74.97 37.9889C74.2701 37.3001 73.7237 36.5088 73.3306 35.6151C72.9375 34.7121 72.741 33.744 72.741 32.7107C72.741 31.7146 72.9327 30.7791 73.3162 29.904C73.6997 29.0196 74.2318 28.247 74.9125 27.586C75.5932 26.9251 76.3793 26.4084 77.2709 26.0361C78.1721 25.6544 79.1356 25.4636 80.1614 25.4636C81.2064 25.4636 82.1268 25.6963 82.9225 26.1617C83.7278 26.6179 84.3941 27.2044 84.9214 27.9212L84.792 25.8545ZM80.334 37.3745C81.1777 37.3745 81.9159 37.1744 82.5486 36.7741C83.1814 36.3645 83.6703 35.8153 84.0154 35.1264C84.3702 34.4375 84.5475 33.6742 84.5475 32.8364C84.5475 31.9892 84.3702 31.2212 84.0154 30.5324C83.6607 29.8435 83.167 29.2989 82.5342 28.8986C81.9111 28.489 81.1777 28.2842 80.334 28.2842C79.4999 28.2842 78.7377 28.489 78.0475 28.8986C77.3572 29.3082 76.8107 29.8575 76.4081 30.5463C76.0054 31.2352 75.8041 31.9985 75.8041 32.8364C75.8041 33.6835 76.0102 34.4515 76.4224 35.1404C76.8443 35.8199 77.3955 36.3645 78.0762 36.7741C78.7665 37.1744 79.5191 37.3745 80.334 37.3745Z" fill="white"/>
<path d="M101.56 25.8545H104.551V39.8182H101.546L101.431 37.7935C101.009 38.5103 100.438 39.0874 99.7194 39.5249C99.0003 39.9625 98.1519 40.1812 97.174 40.1812C96.1194 40.1812 95.1271 39.9904 94.1972 39.6087C93.2672 39.2177 92.4475 38.6778 91.7381 37.9889C91.0382 37.3001 90.4918 36.5088 90.0987 35.6151C89.7056 34.7121 89.5091 33.744 89.5091 32.7107C89.5091 31.7146 89.7008 30.7791 90.0843 29.904C90.4678 29.0196 90.9999 28.247 91.6806 27.586C92.3613 26.9251 93.1474 26.4084 94.039 26.0361C94.9402 25.6544 95.9037 25.4636 96.9295 25.4636C97.9745 25.4636 98.8949 25.6963 99.6906 26.1617C100.496 26.6179 101.162 27.2044 101.69 27.9212L101.56 25.8545ZM97.1021 37.3745C97.9458 37.3745 98.684 37.1744 99.3167 36.7741C99.9495 36.3645 100.438 35.8153 100.784 35.1264C101.138 34.4375 101.316 33.6742 101.316 32.8364C101.316 31.9892 101.138 31.2212 100.784 30.5324C100.429 29.8435 99.9351 29.2989 99.3023 28.8986C98.6792 28.489 97.9458 28.2842 97.1021 28.2842C96.268 28.2842 95.5058 28.489 94.8156 28.8986C94.1253 29.3082 93.5788 29.8575 93.1762 30.5463C92.7735 31.2352 92.5722 31.9985 92.5722 32.8364C92.5722 33.6835 92.7783 34.4515 93.1905 35.1404C93.6124 35.8199 94.1636 36.3645 94.8443 36.7741C95.5346 37.1744 96.2872 37.3745 97.1021 37.3745Z" fill="white"/>
<path d="M114.33 39.8182V20.2691H121.478C122.513 20.2691 123.448 20.4739 124.282 20.8835C125.125 21.2931 125.792 21.8842 126.281 22.6569C126.779 23.4202 127.029 24.3372 127.029 25.4077C127.029 25.929 126.942 26.441 126.77 26.9437C126.597 27.4464 126.353 27.8886 126.036 28.2703C125.72 28.6519 125.336 28.9219 124.886 29.0801C125.499 29.2291 126.007 29.4991 126.41 29.89C126.822 30.2717 127.148 30.7185 127.388 31.2305C127.628 31.7425 127.795 32.2732 127.891 32.8224C127.997 33.3716 128.05 33.8929 128.05 34.3863C128.05 35.4289 127.791 36.3599 127.273 37.1791C126.755 37.9983 126.06 38.6452 125.188 39.12C124.325 39.5855 123.371 39.8182 122.326 39.8182H114.33ZM117.322 37.3047H122.038C122.652 37.3047 123.208 37.1558 123.707 36.8579C124.215 36.56 124.617 36.1504 124.915 35.6291C125.212 35.0985 125.36 34.5027 125.36 33.8417C125.36 33.2646 125.212 32.72 124.915 32.208C124.617 31.6867 124.215 31.2678 123.707 30.9513C123.208 30.6348 122.652 30.4765 122.038 30.4765H117.322V37.3047ZM117.322 28.0049H121.161C121.947 28.0049 122.623 27.7722 123.189 27.3068C123.755 26.8413 124.037 26.2036 124.037 25.3937C124.037 24.528 123.755 23.881 123.189 23.4528C122.623 23.0153 121.947 22.7965 121.161 22.7965H117.322V28.0049Z" fill="white"/>
<path d="M141.444 25.8545H144.435V39.8182H141.43L141.315 37.7935C140.893 38.5103 140.322 39.0874 139.603 39.5249C138.884 39.9625 138.036 40.1812 137.058 40.1812C136.003 40.1812 135.011 39.9904 134.081 39.6087C133.151 39.2177 132.331 38.6778 131.622 37.9889C130.922 37.3001 130.376 36.5088 129.983 35.6151C129.59 34.7121 129.393 33.744 129.393 32.7107C129.393 31.7146 129.585 30.7791 129.968 29.904C130.352 29.0196 130.884 28.247 131.565 27.586C132.245 26.9251 133.031 26.4084 133.923 26.0361C134.824 25.6544 135.788 25.4636 136.813 25.4636C137.858 25.4636 138.779 25.6963 139.575 26.1617C140.38 26.6179 141.046 27.2044 141.573 27.9212L141.444 25.8545ZM136.986 37.3745C137.83 37.3745 138.568 37.1744 139.201 36.7741C139.833 36.3645 140.322 35.8153 140.667 35.1264C141.022 34.4375 141.2 33.6742 141.2 32.8364C141.2 31.9892 141.022 31.2212 140.667 30.5324C140.313 29.8435 139.819 29.2989 139.186 28.8986C138.563 28.489 137.83 28.2842 136.986 28.2842C136.152 28.2842 135.39 28.489 134.699 28.8986C134.009 29.3082 133.463 29.8575 133.06 30.5463C132.657 31.2352 132.456 31.9985 132.456 32.8364C132.456 33.6835 132.662 34.4515 133.074 35.1404C133.496 35.8199 134.048 36.3645 134.728 36.7741C135.419 37.1744 136.171 37.3745 136.986 37.3745Z" fill="white"/>
<path d="M160.247 31.063V39.8182H157.256V31.7751C157.256 31.1514 157.098 30.5836 156.782 30.0716C156.475 29.5596 156.058 29.1546 155.531 28.8567C155.013 28.5495 154.428 28.3959 153.776 28.3959C153.143 28.3959 152.563 28.5495 152.036 28.8567C151.509 29.1546 151.087 29.5596 150.771 30.0716C150.454 30.5836 150.296 31.1514 150.296 31.7751V39.8182H147.305V25.8545H150.296V27.3347C150.795 26.7575 151.408 26.3014 152.137 25.9663C152.865 25.6311 153.651 25.4636 154.495 25.4636C155.559 25.4636 156.528 25.7149 157.4 26.2176C158.272 26.7203 158.963 27.3952 159.471 28.2423C159.989 29.0895 160.247 30.0297 160.247 31.063Z" fill="white"/>
<path d="M175.526 39.8182H172.074L168.537 33.8976L166.221 36.5786V39.8182H163.23V18.8727H166.221V32.0684L171.571 25.8545H175.483L170.579 31.5377L175.526 39.8182Z" fill="white"/>
</svg>
