<svg width="20" height="20" viewBox="0 0 20 20" fill="none" xmlns="http://www.w3.org/2000/svg">
<path d="M10 0.891357C10.4245 0.891357 10.7754 1.24224 10.7754 1.66675V5.62866L11.1191 5.28589C11.4194 4.98564 11.9146 4.98564 12.2148 5.28589C12.5148 5.58617 12.515 6.08146 12.2148 6.38159L10.5479 8.04761C10.4034 8.19208 10.2069 8.27515 10 8.27515C9.89423 8.27515 9.79979 8.25366 9.70215 8.2146V8.21362C9.40896 8.09769 9.22461 7.80723 9.22461 7.49976V1.66675C9.22461 1.24224 9.57549 0.891357 10 0.891357Z" fill="#F2F2F2" stroke="#F2F2F2" stroke-width="0.3"/>
<path d="M7.78558 5.28564C8.08583 4.9854 8.58104 4.9854 8.88129 5.28564L10.5473 6.95264C10.8475 7.25288 10.8475 7.74712 10.5473 8.04736C10.3928 8.20186 10.1962 8.27479 10.0004 8.2749C9.80446 8.2749 9.60719 8.20198 9.45258 8.04736L7.78558 6.38135C7.48534 6.0811 7.48534 5.58589 7.78558 5.28564Z" fill="#F2F2F2" stroke="#F2F2F2" stroke-width="0.3"/>
<path d="M5.32483 10.0579C5.93983 10.0579 6.49174 10.3987 6.76721 10.9495L7.7428 12.8997V12.9006C7.89177 13.2057 8.19698 13.3918 8.54163 13.3918H11.483C11.8277 13.3918 12.1329 13.2057 12.2819 12.9006L12.2828 12.8997L13.2574 10.9495C13.5329 10.3986 14.0848 10.0579 14.6998 10.0579H18.3336C18.758 10.058 19.108 10.4088 19.108 10.8333C19.108 11.2577 18.758 11.6085 18.3336 11.6086H14.6998C14.6837 11.6087 14.6743 11.6125 14.6696 11.6155C14.665 11.6184 14.6593 11.624 14.6539 11.636L14.651 11.6418L13.6754 13.592L13.6744 13.595C13.2327 14.4255 12.3988 14.9417 11.4664 14.9417H8.52502C7.59327 14.9417 6.75756 14.4263 6.34045 13.592L5.36584 11.6418L5.36292 11.636C5.3562 11.6209 5.33901 11.6088 5.31702 11.6086H1.65002C1.22552 11.6086 0.874634 11.2578 0.874634 10.8333C0.874634 10.4087 1.22552 10.0579 1.65002 10.0579H5.32483Z" fill="#F2F2F2" stroke="#F2F2F2" stroke-width="0.3"/>
<path d="M14.28 2.67676C15.9318 2.91818 17.1488 3.54056 17.9479 4.61914C18.7438 5.6933 19.1081 7.19754 19.1081 9.16699V12.5C19.1081 14.7797 18.6217 16.4424 17.5319 17.5322C16.4421 18.6219 14.7793 19.1084 12.4997 19.1084H7.49969C5.22014 19.1084 3.55721 18.622 2.46747 17.5322C1.37782 16.4424 0.891296 14.7796 0.891296 12.5V9.16699C0.891296 7.19744 1.25651 5.69331 2.05243 4.61914C2.85162 3.54057 4.06858 2.91818 5.7204 2.67676L5.80048 2.66895C6.19856 2.65139 6.54007 2.93096 6.59833 3.32812C6.66019 3.75082 6.37137 4.14482 5.94696 4.20703C4.66269 4.39517 3.79899 4.83597 3.24969 5.6084C2.69561 6.38789 2.44208 7.53159 2.44208 9.16699V12.5C2.44208 14.4101 2.78311 15.6602 3.56122 16.4385C4.33944 17.2167 5.58963 17.5586 7.49969 17.5586H12.4997C14.4099 17.5586 15.6609 17.2167 16.4391 16.4385C17.2171 15.6602 17.5583 14.4099 17.5583 12.5V9.16699C17.5583 7.53159 17.3048 6.38789 16.7507 5.6084C16.2014 4.83591 15.3377 4.3952 14.0534 4.20703C13.6289 4.14491 13.3402 3.75089 13.402 3.32812C13.4643 2.90382 13.8573 2.61496 14.28 2.67676Z" fill="#F2F2F2" stroke="#F2F2F2" stroke-width="0.3"/>
</svg>
