<svg width="20" height="15" viewBox="0 0 20 15" fill="none" xmlns="http://www.w3.org/2000/svg">
<path d="M9.99998 6.83342C11.8409 6.83342 13.3333 5.34103 13.3333 3.50008C13.3333 1.65913 11.8409 0.166748 9.99998 0.166748C8.15903 0.166748 6.66665 1.65913 6.66665 3.50008C6.66665 5.34103 8.15903 6.83342 9.99998 6.83342Z" fill="#F2F2F2"/>
<path d="M5.2183 11.0001C4.03502 13.2251 7.95193 14.3334 9.99998 14.3334C12.048 14.3334 15.9649 13.2251 14.7817 11.0001C13.8918 9.32682 12.092 7.66675 9.99998 7.66675C7.908 7.66675 6.10814 9.32682 5.2183 11.0001Z" fill="#F2F2F2"/>
<path d="M6.24998 6.00008C6.24998 6.92056 5.50379 7.66675 4.58331 7.66675C3.66284 7.66675 2.91665 6.92056 2.91665 6.00008C2.91665 5.07961 3.66284 4.33342 4.58331 4.33342C5.50379 4.33342 6.24998 5.07961 6.24998 6.00008Z" fill="#F2F2F2"/>
<path d="M2.41309 12.2039C2.20847 12.6162 1.7084 12.7845 1.29615 12.5799C0.883904 12.3752 0.715585 11.8752 0.920204 11.4629C1.22636 10.8461 1.68975 10.2268 2.27269 9.75294C2.85585 9.27889 3.60312 8.91675 4.45596 8.91675C4.91619 8.91675 5.28929 9.28985 5.28929 9.75008C5.28929 10.2103 4.91619 10.5834 4.45596 10.5834C4.08847 10.5834 3.70063 10.74 3.32398 11.0462C2.94711 11.3526 2.62601 11.7749 2.41309 12.2039Z" fill="#F2F2F2"/>
<path d="M17.3417 6.00008C17.3417 6.92056 16.5955 7.66675 15.675 7.66675C14.7546 7.66675 14.0084 6.92056 14.0084 6.00008C14.0084 5.07961 14.7546 4.33342 15.675 4.33342C16.5955 4.33342 17.3417 5.07961 17.3417 6.00008Z" fill="#F2F2F2"/>
<path d="M19.0834 11.4629C19.288 11.8752 19.1197 12.3752 18.7075 12.5799C18.2952 12.7845 17.7952 12.6162 17.5905 12.2039C17.3776 11.7749 17.0565 11.3526 16.6796 11.0462C16.303 10.74 15.9152 10.5834 15.5477 10.5834C15.0874 10.5834 14.7143 10.2103 14.7143 9.75008C14.7143 9.28985 15.0874 8.91675 15.5477 8.91675C16.4005 8.91675 17.1478 9.27889 17.7309 9.75294C18.3139 10.2268 18.7773 10.8461 19.0834 11.4629Z" fill="#F2F2F2"/>
</svg>
