<svg width="20" height="20" viewBox="0 0 20 20" fill="none" xmlns="http://www.w3.org/2000/svg">
<path d="M8.33335 7.50008C8.33329 7.2411 8.39358 6.98567 8.50943 6.75404C8.62529 6.52242 8.79354 6.32099 9.00082 6.16572C9.20809 6.01046 9.4487 5.90563 9.70355 5.85957C9.95841 5.8135 10.2205 5.82746 10.469 5.90033C10.7175 5.97321 10.9456 6.10299 11.1353 6.2794C11.3249 6.4558 11.4708 6.67396 11.5614 6.91658C11.652 7.15919 11.6848 7.41959 11.6572 7.6771C11.6296 7.93461 11.5424 8.18215 11.4025 8.40008C10.9042 9.17508 10 9.91342 10 10.8334V11.2501M9.99335 14.1667H10.0009M18.3334 10.0001C18.3334 14.6025 14.6024 18.3334 10 18.3334C5.39765 18.3334 1.66669 14.6025 1.66669 10.0001C1.66669 5.39771 5.39765 1.66675 10 1.66675C14.6024 1.66675 18.3334 5.39771 18.3334 10.0001Z" stroke="#F2F2F2" stroke-width="1.7" stroke-linecap="round" stroke-linejoin="round"/>
</svg>
