<svg width="20" height="20" viewBox="0 0 20 20" fill="none" xmlns="http://www.w3.org/2000/svg">
<path d="M10 8.7667C9.65833 8.7667 9.375 8.48337 9.375 8.1417V5.3667C9.375 5.02503 9.65833 4.7417 10 4.7417C10.3417 4.7417 10.625 5.02503 10.625 5.3667V8.1417C10.625 8.4917 10.3417 8.7667 10 8.7667Z" fill="#F2F2F2" stroke="#F2F2F2" stroke-width="0.5"/>
<path d="M10.0167 16.9584C7.86666 16.9584 5.72499 16.6168 3.68332 15.9334C2.92499 15.6834 2.34999 15.1418 2.09999 14.4584C1.84999 13.7751 1.93332 12.9918 2.34166 12.3084L3.39999 10.5418C3.63332 10.1501 3.84166 9.41678 3.84166 8.95845V7.20845C3.84166 3.80011 6.60832 1.03345 10.0167 1.03345C13.425 1.03345 16.1917 3.80011 16.1917 7.20845V8.95845C16.1917 9.40845 16.4 10.1501 16.6333 10.5418L17.6917 12.3084C18.0833 12.9584 18.15 13.7334 17.8917 14.4418C17.6333 15.1501 17.0667 15.6918 16.35 15.9334C14.3083 16.6251 12.1667 16.9584 10.0167 16.9584ZM10.0167 2.29178C7.29999 2.29178 5.09166 4.50011 5.09166 7.21678V8.96678C5.09166 9.64178 4.82499 10.6168 4.47499 11.1918L3.41666 12.9668C3.19999 13.3251 3.14999 13.7084 3.27499 14.0418C3.39999 14.3751 3.68332 14.6251 4.08332 14.7584C7.91666 16.0334 12.1333 16.0334 15.9667 14.7584C16.325 14.6418 16.6 14.3751 16.725 14.0251C16.8583 13.6751 16.8167 13.2918 16.625 12.9668L15.5667 11.2001C15.2167 10.6251 14.95 9.65012 14.95 8.97511V7.22511C14.9417 4.50011 12.7333 2.29178 10.0167 2.29178Z" fill="#F2F2F2" stroke="#F2F2F2" stroke-width="0.5"/>
<path d="M9.99998 19.0833C9.10831 19.0833 8.23331 18.7167 7.59998 18.0833C6.96664 17.45 6.59998 16.575 6.59998 15.6833H7.84998C7.84998 16.25 8.08331 16.8 8.48331 17.2C8.88331 17.6 9.43331 17.8333 9.99998 17.8333C11.1833 17.8333 12.15 16.8667 12.15 15.6833H13.4C13.4 17.5583 11.875 19.0833 9.99998 19.0833Z" fill="#F2F2F2" stroke="#F2F2F2" stroke-width="0.5"/>
</svg>
