<svg width="18" height="16" viewBox="0 0 18 16" fill="none" xmlns="http://www.w3.org/2000/svg">
<path d="M3.31669 10.7467C2.26835 11.3617 -0.479145 12.6158 1.19419 14.185C2.01252 14.9517 2.92252 15.5 4.06752 15.5H10.5992C11.7442 15.5 12.655 14.9517 13.4717 14.185C15.1459 12.6158 12.3984 11.3608 11.35 10.7467C10.1296 10.0391 8.74401 9.66652 7.33335 9.66652C5.9227 9.66652 4.53708 10.0391 3.31669 10.7467ZM10.6667 3.83333C10.6667 4.71739 10.3155 5.56523 9.69038 6.19036C9.06526 6.81548 8.21741 7.16667 7.33335 7.16667C6.4493 7.16667 5.60145 6.81548 4.97633 6.19036C4.35121 5.56523 4.00002 4.71739 4.00002 3.83333C4.00002 2.94928 4.35121 2.10143 4.97633 1.47631C5.60145 0.851189 6.4493 0.5 7.33335 0.5C8.21741 0.5 9.06526 0.851189 9.69038 1.47631C10.3155 2.10143 10.6667 2.94928 10.6667 3.83333ZM15.3517 1.805C15.5384 1.6025 15.6309 1.50167 15.73 1.44333C15.8469 1.37338 15.9802 1.33546 16.1164 1.33342C16.2526 1.33137 16.3869 1.36526 16.5059 1.43167C16.6059 1.4875 16.7025 1.585 16.8942 1.78167C17.0859 1.9775 17.1825 2.07583 17.2375 2.17833C17.3023 2.30079 17.3351 2.43757 17.3331 2.57608C17.3311 2.71458 17.2942 2.85034 17.2259 2.97083C17.1675 3.0725 17.0692 3.1675 16.8717 3.3575L14.5217 5.62167C14.1467 5.9825 13.9592 6.16333 13.725 6.255C13.4909 6.34667 13.2342 6.33833 12.72 6.32583L12.65 6.32333C12.4934 6.31917 12.415 6.3175 12.3692 6.26583C12.3242 6.21417 12.33 6.13417 12.3425 5.97417L12.3492 5.88833C12.3842 5.43917 12.4017 5.215 12.4892 5.01333C12.5767 4.81083 12.7284 4.64667 13.0309 4.31917L15.3517 1.805Z" stroke="#98A2B3" stroke-linecap="round" stroke-linejoin="round"/>
</svg>
