<svg width="20" height="20" viewBox="0 0 20 20" fill="none" xmlns="http://www.w3.org/2000/svg">
<path d="M9.99998 18.3334C12.9916 18.3334 15.4166 16.2251 15.4166 13.6251V10.5417C15.4166 13.1417 12.9916 15.0001 9.99998 15.0001C7.00831 15.0001 4.58331 13.1417 4.58331 10.5417V13.6251C4.58331 15.0501 5.30831 16.3251 6.45831 17.1834" stroke="#F2F2F2" stroke-width="1.7" stroke-linecap="round" stroke-linejoin="round"/>
<path d="M15.4166 6.37508C15.4166 7.13342 15.2083 7.83341 14.8416 8.43341C13.95 9.90008 12.1166 10.8334 9.99998 10.8334C7.88331 10.8334 6.04998 9.90008 5.15832 8.43341C4.79165 7.83341 4.58331 7.13342 4.58331 6.37508C4.58331 5.07508 5.19164 3.90008 6.16664 3.05008C7.14997 2.19175 8.49998 1.66675 9.99998 1.66675C11.5 1.66675 12.85 2.19175 13.8333 3.04175C14.8083 3.90008 15.4166 5.07508 15.4166 6.37508Z" stroke="#F2F2F2" stroke-width="1.7" stroke-linecap="round" stroke-linejoin="round"/>
<path d="M15.4166 6.37508V10.5417C15.4166 13.1417 12.9916 15.0001 9.99998 15.0001C7.00831 15.0001 4.58331 13.1417 4.58331 10.5417V6.37508C4.58331 3.77508 7.00831 1.66675 9.99998 1.66675C11.5 1.66675 12.85 2.19175 13.8333 3.04175C14.8083 3.90008 15.4166 5.07508 15.4166 6.37508Z" stroke="#F2F2F2" stroke-width="1.7" stroke-linecap="round" stroke-linejoin="round"/>
</svg>
