<svg width="18" height="16" viewBox="0 0 18 16" fill="none" xmlns="http://www.w3.org/2000/svg">
<path d="M17.0893 4.42259C17.4147 4.09715 17.4147 3.56951 17.0893 3.24408L14.5893 0.744078C14.2638 0.418641 13.7362 0.418641 13.4108 0.744078C13.0853 1.06951 13.0853 1.59715 13.4108 1.92259L14.4882 3L1.50002 3C1.03978 3 0.666687 3.3731 0.666687 3.83333C0.666687 4.29357 1.03978 4.66667 1.50002 4.66667L14.4882 4.66667L13.4108 5.74408C13.0853 6.06951 13.0853 6.59715 13.4108 6.92259C13.7362 7.24803 14.2638 7.24803 14.5893 6.92259L17.0893 4.42259Z" fill="#F2F2F2"/>
<path d="M0.910765 12.7559C0.585328 12.4305 0.585328 11.9028 0.910765 11.5774L3.41076 9.07741C3.7362 8.75197 4.26384 8.75197 4.58928 9.07741C4.91471 9.40285 4.91471 9.93049 4.58928 10.2559L3.51187 11.3333L16.5 11.3333C16.9603 11.3333 17.3334 11.7064 17.3334 12.1667C17.3334 12.6269 16.9603 13 16.5 13L3.51186 13L4.58928 14.0774C4.91471 14.4028 4.91471 14.9305 4.58928 15.2559C4.26384 15.5814 3.7362 15.5814 3.41076 15.2559L0.910765 12.7559Z" fill="#F2F2F2"/>
</svg>
