<svg width="16" height="18" viewBox="0 0 16 18" fill="none" xmlns="http://www.w3.org/2000/svg">
<path d="M3.48163 11.9017C2.30247 12.6034 -0.789199 14.0367 1.09413 15.8309C2.0133 16.7067 3.03747 17.3334 4.32497 17.3334H11.6733C12.9616 17.3334 13.9858 16.7067 14.905 15.8309C16.7883 14.0367 13.6966 12.6034 12.5175 11.9017C11.149 11.0933 9.5886 10.6668 7.99913 10.6668C6.40967 10.6668 4.85014 11.0933 3.48163 11.9017ZM11.75 4.41675C11.75 5.41131 11.3549 6.36514 10.6516 7.0684C9.94836 7.77166 8.99453 8.16675 7.99997 8.16675C7.00541 8.16675 6.05158 7.77166 5.34832 7.0684C4.64506 6.36514 4.24997 5.41131 4.24997 4.41675C4.24997 3.42219 4.64506 2.46836 5.34832 1.7651C6.05158 1.06184 7.00541 0.666748 7.99997 0.666748C8.99453 0.666748 9.94836 1.06184 10.6516 1.7651C11.3549 2.46836 11.75 3.42219 11.75 4.41675Z" fill="white" stroke="black" stroke-linecap="round" stroke-linejoin="round"/>
</svg>
